<?xml version="1.0" standalone="no"?>
<!DOCTYPE svg PUBLIC "-//W3C//DTD SVG 20010904//EN"
 "http://www.w3.org/TR/2001/REC-SVG-20010904/DTD/svg10.dtd">
<svg version="1.0" xmlns="http://www.w3.org/2000/svg"
 width="256.000000pt" height="256.000000pt" viewBox="0 0 256.000000 256.000000"
 preserveAspectRatio="xMidYMid meet">

<g transform="translate(0.000000,256.000000) scale(0.100000,-0.100000)"
fill="#000000" stroke="none">
<path d="M0 1958 l0 -601 30 59 c16 32 67 101 112 152 665 748 1611 748 2276
0 45 -51 96 -120 112 -152 l30 -59 0 601 0 602 -1280 0 -1280 0 0 -602z"/>
<path d="M1140 1865 c-210 -58 -373 -219 -436 -430 -11 -38 -18 -94 -18 -155
-1 -168 63 -319 185 -436 77 -72 149 -115 247 -144 63 -19 90 -22 185 -18 93
4 124 9 182 33 l70 28 102 -109 c56 -60 99 -112 95 -115 -14 -14 -148 -50
-236 -64 -118 -19 -355 -19 -474 0 -327 53 -649 241 -900 525 -83 94 -106 127
-129 185 -9 24 -12 -99 -12 -567 l-1 -598 1280 0 1280 0 -1 598 c0 328 -3 590
-6 582 -48 -139 -312 -406 -529 -535 l-40 -24 -129 129 -128 128 39 58 c79
120 108 228 102 373 -12 251 -169 460 -408 541 -85 29 -241 36 -320 15z m205
-216 c120 -22 223 -100 273 -207 24 -51 27 -69 27 -167 0 -101 -2 -115 -28
-165 -39 -76 -108 -143 -181 -177 -53 -24 -73 -28 -156 -28 -83 0 -103 4 -155
28 -76 35 -138 95 -178 172 -30 57 -32 66 -32 170 0 101 2 115 29 169 52 106
141 177 256 202 71 16 76 16 145 3z"/>
</g>
</svg>
